<?xml version="1.0" standalone="no"?>
<!DOCTYPE svg PUBLIC "-//W3C//DTD SVG 20010904//EN"
 "http://www.w3.org/TR/2001/REC-SVG-20010904/DTD/svg10.dtd">
<svg version="1.0" xmlns="http://www.w3.org/2000/svg"
 width="1620.000000pt" height="1620.000000pt" viewBox="0 0 1620.000000 1620.000000"
 preserveAspectRatio="xMidYMid meet">
<metadata>
Created by potrace 1.16, written by Peter Selinger 2001-2019
</metadata>
<g transform="translate(0.000000,1620.000000) scale(0.100000,-0.100000)"
fill="#000000" stroke="none">
<path d="M9042 14498 c-8 -8 -12 -46 -12 -105 0 -82 -2 -93 -20 -103 -19 -10
-20 -21 -20 -169 0 -155 0 -158 -25 -179 -25 -22 -25 -24 -25 -175 0 -141 -2
-155 -20 -172 -18 -17 -20 -31 -20 -176 0 -148 -1 -159 -20 -169 -19 -10 -20
-21 -20 -169 0 -155 0 -158 -25 -179 -24 -21 -25 -25 -25 -157 0 -124 -2 -135
-20 -145 -19 -10 -20 -21 -20 -150 0 -129 -1 -140 -20 -150 -18 -10 -20 -21
-20 -125 0 -110 -1 -116 -25 -137 -25 -21 -25 -24 -25 -179 0 -148 -1 -159
-20 -169 -18 -10 -20 -21 -20 -124 0 -100 -2 -115 -20 -131 -18 -16 -20 -31
-20 -150 0 -127 -1 -132 -25 -155 -24 -22 -25 -29 -25 -135 0 -98 -2 -112 -20
-128 -17 -14 -20 -29 -20 -105 0 -76 -3 -91 -20 -107 -18 -16 -20 -31 -20
-150 0 -127 -1 -132 -25 -155 -24 -22 -25 -29 -25 -136 0 -103 -2 -114 -20
-124 -18 -10 -20 -21 -20 -104 0 -80 -3 -95 -20 -111 -17 -16 -20 -31 -20
-108 0 -80 -3 -93 -22 -115 -21 -21 -23 -34 -23 -127 -1 -93 -3 -106 -23 -128
-19 -20 -22 -34 -22 -113 0 -78 -2 -91 -20 -102 -18 -11 -20 -23 -20 -107 0
-85 -2 -95 -22 -109 -19 -13 -21 -24 -21 -82 1 -58 -2 -70 -23 -89 -20 -19
-24 -32 -26 -111 -2 -71 -6 -89 -18 -89 -8 0 -16 11 -18 25 -2 14 -12 32 -22
40 -14 12 -19 34 -23 104 -5 71 -10 93 -26 110 -17 18 -21 35 -21 94 0 61 -3
73 -20 82 -17 9 -20 21 -20 74 0 50 -5 69 -22 91 -15 19 -21 40 -20 70 2 30
-4 50 -20 71 -20 25 -23 43 -26 134 -3 84 -7 109 -22 125 -14 15 -19 40 -22
106 -2 62 -8 92 -19 105 -12 14 -18 45 -21 106 -4 73 -8 92 -26 111 -18 19
-22 35 -22 95 0 61 -3 73 -20 82 -18 10 -20 21 -20 104 0 78 -3 96 -19 110
-16 14 -19 35 -23 126 -3 96 -6 111 -26 132 -19 21 -22 35 -22 115 0 77 -3 92
-20 108 -18 16 -20 31 -20 131 0 103 -2 114 -20 124 -18 10 -20 21 -20 124 0
107 -1 114 -25 136 -24 22 -25 29 -25 137 0 102 -2 114 -20 125 -19 12 -20 24
-20 169 0 143 -2 157 -20 174 -18 16 -20 31 -20 130 0 106 -1 112 -25 133 -25
22 -25 24 -25 175 0 141 -1 153 -20 165 -18 11 -20 23 -20 151 0 125 -2 140
-20 156 -18 17 -20 31 -20 170 0 143 -1 154 -22 181 -21 26 -23 41 -26 181 -3
138 -5 154 -22 163 -15 8 -20 24 -22 68 l-3 57 -120 3 c-113 3 -120 2 -136
-19 -16 -22 -22 -22 -190 -20 l-174 2 -24 -25 c-24 -26 -26 -26 -180 -26 -145
0 -157 -1 -169 -20 -11 -19 -23 -20 -168 -20 l-155 0 -34 -34 c-33 -31 -35
-37 -35 -99 0 -60 2 -68 25 -83 25 -16 25 -17 25 -175 0 -148 1 -160 20 -171
19 -12 20 -24 20 -169 0 -143 2 -157 20 -174 19 -17 20 -31 20 -215 l0 -197
25 -23 25 -23 0 -197 c0 -184 1 -198 20 -215 18 -17 20 -31 20 -165 0 -132 2
-150 20 -173 18 -23 20 -40 20 -181 0 -155 0 -156 25 -172 25 -16 25 -18 25
-155 0 -128 1 -139 20 -149 19 -10 20 -21 20 -150 0 -129 1 -140 20 -150 19
-10 20 -21 20 -169 0 -155 0 -158 25 -181 24 -22 25 -29 25 -136 0 -103 2
-114 20 -124 18 -10 20 -21 20 -124 0 -100 2 -115 20 -131 18 -16 20 -31 20
-150 0 -127 1 -132 25 -155 24 -22 25 -29 25 -136 0 -103 2 -114 20 -124 18
-10 20 -21 20 -104 0 -80 3 -95 20 -111 18 -16 20 -31 20 -130 0 -106 1 -112
25 -133 23 -20 25 -29 25 -103 0 -66 4 -86 20 -106 16 -20 20 -41 20 -94 0
-61 3 -70 24 -84 22 -15 23 -19 18 -104 -5 -86 -4 -89 22 -112 24 -21 26 -29
26 -95 0 -63 3 -75 20 -84 17 -9 20 -21 20 -85 0 -64 3 -76 20 -85 17 -9 20
-21 20 -80 0 -62 3 -73 25 -92 22 -19 25 -29 25 -92 0 -60 3 -73 20 -84 17
-10 20 -23 20 -87 0 -64 3 -76 20 -85 16 -8 20 -21 20 -60 0 -39 4 -52 23 -65
19 -13 23 -27 27 -93 l5 -77 33 -3 c41 -4 52 -28 23 -48 -28 -20 -28 -69 -1
-84 13 -7 20 -21 20 -39 0 -16 10 -37 25 -51 14 -13 25 -35 25 -49 0 -15 8
-31 20 -39 16 -9 20 -23 20 -61 0 -35 5 -53 20 -66 11 -10 20 -28 20 -41 0
-14 17 -39 45 -66 25 -24 45 -52 45 -63 0 -27 64 -95 89 -95 24 0 41 -28 41
-65 0 -35 57 -105 85 -105 13 0 48 -25 89 -65 43 -42 75 -65 90 -65 13 0 31
-9 41 -20 10 -11 28 -20 40 -20 12 0 30 -9 40 -20 10 -11 30 -20 45 -20 18 0
33 -8 44 -25 15 -23 23 -25 91 -25 64 0 76 -3 85 -20 10 -19 21 -20 193 -20
171 0 183 1 195 20 9 15 23 20 60 20 39 0 53 5 70 25 17 20 31 25 68 25 44 0
48 3 129 85 58 60 90 85 107 85 31 0 128 98 128 130 0 14 23 44 65 85 44 42
65 70 65 86 0 15 16 40 45 67 32 30 45 51 45 70 0 16 8 32 20 40 13 8 20 23
20 42 0 19 7 33 20 40 12 7 20 21 20 38 0 14 9 35 20 47 50 52 70 80 70 100 0
12 9 30 20 40 14 13 20 31 20 62 0 30 6 49 20 63 11 11 20 26 20 34 0 8 11 28
25 44 19 22 25 41 25 76 0 35 5 49 20 58 16 10 20 24 20 64 0 44 4 54 25 68
21 14 25 24 25 65 0 35 5 53 20 66 15 13 20 31 20 66 0 38 4 52 20 61 16 10
20 24 20 64 0 44 4 54 25 68 23 15 25 23 25 91 0 64 3 76 20 85 16 8 20 21 20
59 0 35 5 53 20 66 14 13 20 31 20 63 0 33 6 52 22 69 17 18 22 39 26 105 3
60 10 90 23 107 13 16 19 40 19 72 0 38 4 52 20 61 17 11 20 24 20 84 0 63 3
73 25 92 23 20 25 29 25 105 0 71 3 87 20 102 15 14 20 31 20 71 0 43 4 55 20
64 17 9 20 21 20 82 0 59 4 76 21 94 16 18 23 40 27 94 4 55 9 73 23 81 16 8
19 22 19 98 0 75 3 91 20 106 17 16 20 31 20 112 0 87 2 95 25 115 22 19 25
29 25 92 0 60 3 73 20 84 17 11 20 23 20 96 0 68 4 88 20 109 16 20 20 40 20
95 0 63 2 71 25 86 24 16 25 21 25 110 0 80 3 95 20 111 16 15 20 31 20 86 0
55 3 70 19 81 16 12 20 29 23 125 3 99 5 114 26 135 19 21 22 35 22 110 0 72
3 88 20 103 17 16 20 31 20 110 0 78 3 95 19 109 15 14 20 34 23 106 2 75 6
92 26 112 19 22 22 35 22 116 0 81 2 92 20 102 18 10 20 21 20 104 0 80 3 95
20 111 17 16 20 31 20 108 0 79 3 94 22 114 19 20 22 37 26 133 4 90 8 112 23
126 16 15 19 32 19 130 0 101 2 114 19 123 16 9 19 25 22 125 4 100 7 117 23
129 17 12 20 29 22 113 3 87 6 101 24 113 19 13 20 24 20 172 0 148 1 160 20
171 19 12 20 24 20 203 0 182 1 192 23 222 21 28 22 37 17 149 l-5 119 -96 3
c-81 2 -99 6 -114 22 -17 18 -32 20 -170 20 -139 0 -153 2 -170 20 -16 18 -31
20 -150 20 -127 0 -132 1 -155 25 -23 24 -28 25 -155 25 -119 0 -134 2 -150
20 -16 18 -31 20 -150 20 -119 0 -134 2 -150 20 -16 18 -31 20 -150 20 -127 0
-132 1 -155 25 -18 19 -34 25 -65 25 -22 0 -46 -5 -53 -12z"/>
<path d="M3055 14180 c-15 -17 -31 -20 -105 -20 -74 0 -90 -3 -105 -20 -13
-15 -31 -20 -65 -20 -37 0 -51 -5 -70 -25 -13 -14 -35 -25 -49 -25 -15 0 -31
-8 -39 -20 -8 -13 -23 -20 -42 -20 -19 0 -33 -7 -40 -20 -7 -13 -21 -20 -39
-20 -17 0 -36 -10 -49 -25 -12 -14 -33 -25 -47 -25 -17 0 -43 -19 -87 -65 -41
-42 -71 -65 -85 -65 -32 0 -383 -351 -383 -382 0 -15 -23 -45 -65 -86 -41 -40
-65 -71 -65 -85 0 -13 -26 -49 -65 -91 -41 -44 -65 -78 -65 -92 0 -14 -10 -30
-25 -40 -17 -11 -25 -26 -25 -44 0 -15 -9 -35 -20 -45 -11 -10 -20 -28 -20
-40 0 -12 -9 -30 -20 -40 -25 -23 -25 -37 0 -53 22 -13 19 -32 -6 -32 -8 0
-14 9 -14 20 0 11 -6 20 -13 20 -21 0 -37 -22 -37 -52 0 -17 -7 -31 -20 -38
-16 -8 -20 -21 -20 -59 0 -35 -5 -53 -20 -66 -11 -10 -20 -30 -20 -45 0 -18
-8 -33 -25 -44 -17 -11 -25 -26 -25 -46 0 -19 -7 -34 -20 -42 -12 -8 -20 -24
-20 -39 0 -14 -9 -34 -20 -44 -15 -13 -20 -31 -20 -65 0 -37 -5 -51 -25 -68
-20 -18 -25 -31 -25 -72 0 -39 -4 -51 -20 -60 -16 -8 -20 -21 -20 -59 0 -35
-5 -53 -20 -66 -11 -10 -20 -30 -20 -45 0 -18 -8 -33 -25 -44 -23 -15 -25 -23
-25 -91 0 -64 -3 -76 -20 -85 -17 -9 -20 -21 -20 -85 0 -64 -3 -76 -20 -85
-17 -9 -20 -21 -20 -84 0 -68 -2 -75 -25 -90 -23 -15 -25 -23 -25 -87 0 -56
-4 -76 -20 -96 -17 -22 -20 -41 -20 -128 0 -89 -2 -104 -20 -120 -18 -16 -20
-31 -20 -131 0 -110 -1 -114 -25 -130 l-25 -16 0 -204 c0 -193 -1 -204 -20
-214 -20 -10 -20 -21 -20 -540 0 -519 0 -530 20 -540 19 -10 20 -21 20 -189 0
-176 0 -178 25 -201 24 -23 25 -28 25 -155 0 -119 2 -134 20 -150 17 -16 20
-31 20 -111 0 -83 2 -94 20 -104 18 -10 20 -21 20 -105 0 -90 1 -95 25 -111
23 -15 25 -22 25 -90 0 -63 3 -75 20 -84 16 -9 20 -21 20 -65 0 -43 4 -56 19
-64 14 -8 19 -26 23 -81 4 -54 11 -76 27 -94 11 -12 21 -34 21 -49 0 -16 8
-30 20 -37 13 -7 20 -21 20 -39 0 -15 9 -36 20 -46 15 -13 20 -31 20 -65 0
-37 5 -51 25 -68 14 -12 25 -32 25 -45 0 -13 9 -32 20 -42 11 -10 20 -31 20
-46 0 -18 7 -32 20 -39 13 -7 20 -21 20 -39 0 -17 10 -36 25 -49 14 -13 25
-33 25 -47 0 -25 3 -27 69 -51 11 -3 9 -9 -7 -25 -12 -11 -22 -22 -22 -24 0
-3 20 -24 45 -47 28 -27 45 -51 45 -66 0 -15 23 -45 65 -88 40 -41 65 -74 65
-87 0 -32 267 -297 299 -297 16 0 44 -22 86 -65 46 -47 70 -65 89 -65 15 0 31
-8 38 -20 8 -12 24 -20 39 -20 14 0 36 -11 49 -25 14 -15 35 -25 51 -25 18 0
32 -7 39 -20 7 -13 21 -20 40 -20 19 0 34 -7 42 -20 8 -12 24 -20 39 -20 14 0
38 -10 53 -21 15 -12 48 -24 73 -27 29 -3 49 -11 56 -23 10 -16 24 -19 84 -19
59 0 74 -3 85 -19 11 -16 30 -19 125 -22 94 -4 115 -7 133 -24 21 -19 37 -20
260 -20 233 0 239 0 262 23 21 19 35 22 114 22 77 0 92 3 107 20 9 11 29 20
45 20 16 0 37 9 47 20 13 14 31 20 60 20 30 0 47 6 62 23 40 44 67 60 112 65
35 4 54 14 85 44 22 21 48 38 58 38 11 0 29 11 42 25 13 14 33 25 44 25 12 0
29 9 39 19 10 11 33 21 52 23 29 2 36 8 46 38 8 25 20 38 41 45 34 12 344 320
344 343 0 8 20 39 45 68 25 28 45 61 45 72 0 11 27 48 61 83 33 34 63 75 66
90 3 16 14 36 24 45 11 9 19 27 19 39 0 12 11 32 24 44 13 12 24 33 24 47 0
15 9 32 21 40 13 10 21 26 21 44 0 19 7 33 20 40 12 7 20 21 20 37 0 15 9 37
21 49 14 15 21 36 22 69 1 37 6 51 24 62 16 11 23 25 23 47 0 19 8 38 20 49
14 12 20 29 20 60 0 31 6 49 20 62 14 13 20 31 20 62 0 34 5 48 25 65 20 17
25 31 25 70 0 37 5 51 20 60 16 10 20 24 20 65 0 42 4 54 20 63 18 9 20 21 20
100 0 81 2 91 25 116 22 23 25 36 25 95 0 58 3 71 20 81 19 12 20 24 20 334 0
312 1 322 21 348 19 24 21 39 20 118 -1 50 -4 95 -7 100 -3 4 -35 8 -71 8 -55
0 -71 4 -91 23 -22 21 -34 22 -180 25 -141 3 -157 5 -170 23 -12 17 -26 19
-172 19 -149 0 -160 1 -170 20 -10 19 -21 20 -167 20 -146 0 -158 1 -179 21
-21 19 -33 21 -151 20 -126 -2 -129 -1 -153 24 -23 25 -25 25 -178 25 -146 0
-155 1 -172 22 l-17 22 -32 -31 -31 -31 0 -174 c0 -173 0 -175 -25 -198 -25
-23 -25 -26 -25 -181 0 -148 -1 -159 -20 -169 -19 -10 -20 -21 -20 -150 0
-129 -1 -140 -20 -150 -18 -10 -20 -21 -20 -104 0 -86 -2 -94 -25 -114 -22
-19 -25 -30 -25 -92 0 -59 -3 -71 -20 -80 -15 -8 -20 -21 -20 -54 0 -28 -7
-52 -20 -69 -11 -14 -20 -36 -20 -49 0 -14 -11 -34 -25 -46 -20 -17 -25 -31
-25 -66 0 -39 -5 -50 -49 -95 -46 -48 -52 -51 -99 -51 -36 0 -54 -5 -67 -20
l-18 -20 -22 20 c-15 14 -35 20 -68 20 -46 0 -49 2 -142 95 -74 74 -95 101
-95 123 0 16 -8 32 -20 40 -12 7 -20 23 -20 41 0 20 -8 34 -25 45 -21 14 -25
24 -25 65 0 35 -5 53 -20 66 -11 10 -20 31 -20 46 0 18 -7 32 -20 39 -16 8
-20 21 -20 59 0 38 -5 52 -25 71 -20 18 -25 33 -25 70 0 33 -5 50 -20 63 -17
14 -20 29 -20 102 0 73 -3 88 -20 102 -15 13 -20 30 -20 68 0 42 -5 55 -24 72
-22 20 -23 26 -24 158 -1 120 -3 139 -19 150 -16 12 -18 36 -21 233 -3 203 -5
221 -23 237 -18 17 -19 34 -19 349 0 320 1 332 20 344 19 12 20 23 20 246 0
222 1 235 21 260 19 24 21 39 20 159 -2 130 -1 133 24 155 23 20 25 28 25 112
0 79 2 91 20 100 16 9 20 21 20 65 0 42 5 59 21 74 18 16 21 31 20 84 -1 56 2
67 24 87 20 19 25 33 25 71 0 38 4 51 20 59 16 8 20 21 20 59 0 35 5 53 20 66
15 13 20 31 20 64 0 42 4 51 45 89 28 27 45 51 45 66 0 12 9 31 20 41 11 10
20 29 20 42 0 13 11 33 25 45 15 13 25 32 25 48 0 15 10 36 23 48 46 44 57 59
57 78 0 11 50 70 123 142 94 94 128 122 148 122 15 0 32 7 39 15 7 8 17 15 22
15 5 0 16 -7 24 -15 9 -9 33 -15 58 -15 38 0 48 -6 99 -57 37 -37 57 -65 57
-80 0 -15 15 -38 40 -60 28 -26 40 -46 40 -64 0 -17 9 -32 25 -43 21 -14 25
-24 25 -65 0 -35 5 -53 20 -66 11 -10 20 -31 20 -46 0 -18 7 -32 20 -39 16 -8
20 -21 20 -59 0 -38 5 -52 25 -71 20 -19 25 -33 25 -72 0 -37 4 -51 20 -60 16
-10 20 -24 20 -65 0 -42 4 -54 20 -63 18 -10 20 -21 20 -104 0 -86 2 -94 25
-114 25 -22 25 -22 25 -202 0 -169 1 -180 20 -190 19 -10 20 -21 20 -150 0
-147 8 -172 41 -132 17 22 23 22 280 22 259 0 263 0 287 23 23 21 31 22 264
25 223 3 242 5 257 23 13 16 32 19 111 21 l95 3 3 382 c2 374 2 382 -18 393
-17 9 -20 21 -20 82 0 59 -4 76 -21 94 -16 17 -21 39 -26 105 -3 64 -9 89 -24
105 -14 14 -19 35 -19 72 0 40 -4 54 -19 61 -15 8 -20 25 -23 80 -2 50 -9 75
-22 90 -13 15 -19 34 -18 64 2 35 -3 48 -23 67 -20 19 -25 33 -25 71 0 38 -4
51 -20 59 -12 7 -20 21 -20 37 0 15 -9 36 -19 47 -11 12 -22 34 -25 50 -3 16
-12 36 -20 45 -8 9 -18 28 -21 44 -4 15 -16 32 -26 38 -15 8 -19 21 -19 64 0
44 -4 56 -20 65 -13 7 -20 21 -20 38 0 20 -12 38 -45 67 -31 28 -45 48 -45 65
0 17 -15 41 -45 70 -30 29 -45 53 -45 70 0 14 -8 30 -20 38 -12 7 -20 23 -20
38 0 21 -27 53 -120 144 -67 65 -132 121 -145 124 -13 3 -51 33 -85 66 -38 37
-70 60 -83 60 -14 0 -41 18 -67 45 -31 32 -52 45 -72 45 -17 0 -31 7 -38 20
-7 13 -21 20 -40 20 -19 0 -34 7 -42 20 -8 12 -24 20 -39 20 -14 0 -36 11 -49
25 -20 22 -32 25 -90 25 -54 0 -70 4 -85 20 -16 17 -31 20 -111 20 -83 0 -94
2 -104 20 -10 19 -21 20 -214 20 -190 0 -204 -1 -221 -20z"/>
<path d="M13095 13010 c-17 -18 -31 -20 -170 -20 -139 0 -153 -2 -170 -20 -15
-16 -31 -20 -85 -20 -58 0 -70 -3 -90 -25 -18 -20 -33 -25 -70 -25 -33 0 -50
-5 -63 -20 -9 -11 -27 -20 -40 -20 -13 0 -32 -9 -42 -20 -10 -11 -30 -20 -45
-20 -15 0 -35 -9 -45 -20 -11 -12 -37 -22 -66 -26 -28 -4 -55 -14 -65 -25 -9
-11 -29 -19 -43 -19 -18 0 -38 -14 -66 -45 -26 -30 -47 -45 -64 -45 -15 0 -41
-16 -68 -42 -24 -24 -61 -60 -82 -80 -21 -20 -50 -40 -65 -44 -14 -3 -59 -40
-99 -82 -39 -42 -91 -95 -114 -118 -24 -22 -43 -50 -43 -62 0 -12 -20 -40 -45
-64 -28 -27 -45 -52 -45 -67 0 -14 -16 -39 -40 -62 -22 -22 -43 -53 -46 -69
-4 -16 -15 -37 -25 -46 -11 -9 -19 -27 -19 -39 0 -12 -18 -42 -40 -66 -31 -34
-41 -55 -46 -91 -4 -27 -15 -54 -25 -64 -14 -12 -19 -31 -19 -65 0 -38 -4 -51
-20 -59 -16 -9 -20 -21 -20 -60 0 -41 -5 -54 -26 -72 -24 -21 -25 -27 -23
-112 2 -82 0 -91 -20 -104 -21 -14 -21 -20 -21 -276 0 -261 0 -263 23 -284 21
-20 23 -28 19 -106 -3 -81 -2 -86 22 -107 24 -20 26 -30 26 -95 0 -63 3 -75
20 -84 16 -8 20 -21 20 -59 0 -35 5 -53 20 -66 11 -10 20 -29 20 -42 0 -13 11
-33 25 -45 16 -13 25 -32 25 -50 0 -17 8 -33 20 -40 12 -8 20 -24 20 -38 0
-17 15 -41 45 -70 30 -29 45 -53 45 -70 0 -17 13 -37 40 -60 25 -22 40 -44 40
-58 0 -33 538 -572 570 -572 15 0 45 -23 86 -65 35 -36 72 -65 82 -65 11 0 60
-38 110 -85 59 -56 98 -85 114 -85 15 0 37 -16 62 -45 26 -30 47 -45 63 -45
14 0 41 -16 65 -40 23 -22 52 -40 63 -40 12 0 31 -11 43 -25 13 -14 33 -25 47
-25 16 0 39 -14 64 -40 24 -25 48 -40 63 -40 16 0 37 -15 63 -45 27 -30 48
-45 65 -45 16 0 41 -16 69 -45 31 -31 53 -45 72 -45 27 0 39 -15 39 -49 0 -9
29 -46 65 -81 48 -47 65 -72 65 -91 0 -16 9 -33 23 -42 19 -14 20 -18 7 -26
-8 -6 -24 -11 -36 -11 -11 0 -29 -9 -39 -20 -13 -15 -31 -20 -65 -20 -37 0
-51 -5 -68 -25 -12 -14 -32 -25 -45 -25 -13 0 -32 -9 -42 -20 -10 -11 -31 -20
-46 -20 -18 0 -32 -7 -39 -20 -10 -19 -21 -20 -149 -20 -137 0 -139 0 -155
-25 l-16 -25 -355 0 c-344 0 -355 -1 -365 -20 -10 -20 -21 -20 -429 -20 -336
0 -421 -3 -430 -13 -17 -21 -16 -1897 1 -1920 12 -16 52 -17 575 -15 l561 3
24 23 c23 21 31 22 202 22 163 0 180 2 203 20 22 17 41 20 128 20 89 0 104 2
120 20 15 17 31 20 105 20 79 0 88 2 110 25 22 23 30 25 114 25 80 0 93 2 104
20 9 16 23 20 61 20 35 0 53 5 66 20 13 14 31 20 63 20 32 0 52 6 67 20 17 16
41 23 94 27 56 5 74 10 82 24 8 15 21 19 64 19 44 0 56 4 65 20 7 13 21 20 39
20 17 0 36 10 49 25 12 14 30 25 40 25 11 0 27 9 37 20 11 12 31 20 49 20 20
0 36 7 44 20 7 12 23 20 40 20 18 0 37 9 50 25 12 14 32 25 44 25 13 0 43 18
67 40 25 22 52 40 62 40 10 0 37 20 61 45 26 27 52 45 66 45 14 0 45 23 83 59
34 33 73 63 88 66 33 7 126 100 134 135 4 14 42 62 86 108 44 45 83 93 87 107
3 13 24 43 45 65 23 23 39 50 39 63 0 13 9 32 20 42 11 10 20 30 20 45 0 18 8
33 25 44 23 15 25 23 25 91 0 64 3 76 20 85 16 9 20 21 20 64 0 40 5 57 20 71
18 16 20 31 20 147 0 115 -2 133 -20 155 -18 23 -20 41 -20 199 0 163 -1 174
-20 184 -16 8 -20 21 -20 59 0 38 -5 52 -25 71 -21 20 -25 32 -25 85 0 49 -4
66 -20 80 -12 11 -20 31 -20 51 0 23 -6 37 -20 44 -16 8 -20 21 -20 59 0 38
-5 52 -25 71 -14 13 -25 35 -25 49 0 15 -8 31 -20 39 -12 7 -20 23 -20 38 0
17 -15 41 -45 71 -26 26 -45 54 -45 67 0 14 -30 51 -85 106 -58 58 -85 92 -85
108 0 30 -144 172 -174 172 -14 0 -60 39 -129 108 -72 72 -115 108 -132 110
-14 1 -42 19 -64 42 -24 24 -48 40 -62 40 -15 0 -40 17 -67 45 -26 27 -52 45
-65 45 -14 0 -39 17 -62 40 -22 23 -49 40 -61 40 -13 0 -41 19 -67 45 -30 30
-54 45 -71 45 -15 0 -31 8 -38 20 -8 12 -24 20 -38 20 -17 0 -41 15 -70 45
-31 32 -52 45 -72 45 -17 0 -31 7 -38 20 -7 12 -21 20 -38 20 -18 0 -43 15
-77 45 -27 25 -56 45 -65 45 -8 0 -46 30 -83 65 -45 43 -77 65 -92 65 -14 0
-29 9 -35 20 -6 12 -21 20 -36 20 -35 0 -264 228 -264 263 0 13 -11 33 -25 45
-15 14 -25 32 -25 50 0 15 -9 35 -20 45 -18 15 -20 29 -20 127 0 99 2 111 20
122 15 10 20 24 20 60 0 39 5 52 25 70 14 12 25 32 25 45 0 29 99 133 127 133
11 0 28 9 38 20 10 11 28 20 40 20 12 0 30 8 39 19 12 14 35 20 90 23 58 4 77
9 95 27 22 22 25 22 281 19 239 -3 260 -4 279 -22 17 -16 41 -21 111 -24 71
-4 93 -8 106 -23 12 -14 31 -19 64 -19 34 0 52 -5 65 -20 13 -15 31 -20 65
-20 37 0 51 -5 68 -25 19 -22 30 -25 92 -25 59 0 71 -3 80 -20 9 -16 21 -20
65 -20 43 0 56 -4 64 -18 8 -15 27 -20 91 -25 44 -4 91 -2 105 3 22 9 25 15
25 63 0 41 5 58 20 72 16 15 20 31 20 84 0 55 3 68 20 79 17 10 20 23 20 82 0
62 3 73 25 92 20 17 25 31 25 68 0 34 5 52 20 65 16 15 20 31 20 86 0 58 3 71
20 81 12 8 20 24 20 39 0 14 10 39 22 54 16 21 23 46 26 94 4 50 9 69 23 79
15 11 19 26 19 81 0 55 4 71 20 86 16 15 20 31 20 85 0 58 3 69 25 90 l25 24
-32 33 c-27 28 -39 33 -78 33 -34 0 -52 5 -65 20 -13 15 -31 20 -66 20 -38 0
-52 4 -61 20 -10 15 -24 20 -61 20 -38 0 -53 5 -71 25 -21 22 -31 25 -94 25
-61 0 -73 3 -82 20 -9 17 -21 20 -85 20 -64 0 -76 3 -85 20 -8 16 -21 20 -59
20 -38 0 -52 5 -71 25 -22 23 -30 25 -116 25 -83 0 -94 2 -104 20 -10 19 -21
20 -189 20 -165 0 -179 1 -196 20 -17 19 -31 20 -285 20 -254 0 -268 -1 -285
-20z"/>
<path d="M9506 5006 c-15 -24 -22 -26 -89 -26 -61 0 -74 -3 -85 -20 -10 -17
-23 -20 -87 -20 -64 0 -76 -3 -85 -20 -10 -19 -21 -20 -210 -20 l-200 0 -22
-25 c-17 -20 -31 -25 -68 -25 -34 0 -52 -5 -65 -20 -10 -11 -31 -20 -46 -20
-18 0 -32 -7 -39 -20 -6 -12 -21 -20 -36 -20 -37 0 -224 -187 -224 -224 0 -15
-8 -31 -20 -38 -12 -8 -20 -24 -20 -39 0 -14 -11 -35 -23 -47 -19 -18 -23 -31
-21 -63 2 -30 -3 -46 -22 -66 -24 -26 -24 -26 -24 -263 l0 -237 25 -23 c21
-20 24 -31 21 -63 -4 -32 -1 -43 19 -62 14 -12 25 -33 25 -46 0 -36 225 -259
262 -259 16 0 31 -7 37 -19 8 -14 26 -19 81 -23 55 -4 76 -10 95 -28 20 -19
32 -22 66 -17 22 3 51 15 63 26 16 15 35 21 72 21 38 0 52 4 62 20 7 12 23 20
38 20 19 0 43 18 89 65 45 47 70 65 88 65 36 0 43 -17 18 -44 -19 -20 -21 -34
-21 -133 0 -97 -2 -112 -20 -128 -11 -10 -20 -28 -20 -40 0 -12 -11 -32 -25
-45 -14 -13 -25 -34 -25 -47 0 -15 -18 -42 -50 -73 -49 -50 -49 -50 -115 -50
-57 0 -68 -3 -87 -25 -17 -20 -31 -25 -68 -25 -37 0 -51 5 -68 25 -21 24 -25
25 -157 25 -124 0 -135 2 -145 20 -12 23 -59 27 -78 8 -7 -7 -12 -24 -12 -40
0 -17 -7 -31 -20 -38 -19 -10 -20 -21 -20 -193 0 -171 -1 -183 -20 -195 -18
-11 -20 -23 -20 -105 0 -92 0 -93 33 -125 32 -31 35 -32 125 -32 81 0 92 -2
102 -20 10 -19 21 -20 254 -20 230 0 244 1 261 20 13 15 31 20 65 20 37 0 51
5 68 25 17 20 31 25 67 25 39 0 50 5 84 40 22 23 48 40 61 40 34 0 310 279
310 314 0 15 8 30 20 36 13 7 20 21 20 39 0 15 9 36 20 46 11 10 20 29 20 42
0 13 11 33 25 45 22 19 25 29 25 92 0 60 3 73 20 84 17 11 20 23 20 96 0 68 4
88 20 109 19 24 20 40 20 312 0 272 -1 288 -20 312 -18 23 -20 41 -20 174 0
138 -1 150 -20 161 -18 11 -20 24 -20 104 0 84 -2 92 -25 114 -23 22 -25 30
-25 116 0 83 -2 94 -20 104 -17 9 -20 21 -20 85 0 64 -3 76 -20 85 -13 7 -20
21 -20 40 0 19 -8 34 -22 45 -18 12 -24 28 -28 73 -5 55 -6 57 -36 60 -24 2
-35 -3 -48 -22z m-510 -658 c29 -28 34 -40 34 -79 0 -33 -5 -51 -20 -64 -15
-13 -20 -31 -20 -66 0 -41 -4 -51 -25 -65 -21 -14 -25 -24 -25 -68 0 -40 -4
-54 -20 -64 -12 -7 -20 -23 -20 -38 0 -17 -17 -42 -54 -80 l-55 -54 -63 0
c-70 0 -88 10 -88 50 0 15 -9 35 -20 45 -18 16 -20 31 -20 130 0 99 2 114 20
130 14 12 20 31 20 59 0 35 7 47 52 93 49 49 56 53 100 53 40 0 50 4 64 25 13
21 24 25 62 25 37 0 51 -6 78 -32z"/>
<path d="M10082 5018 c-8 -8 -12 -50 -12 -125 0 -102 2 -114 20 -125 19 -12
20 -24 20 -215 0 -194 1 -202 21 -217 12 -8 24 -29 28 -48 l7 -33 274 0 275 0
3 96 c2 81 6 99 22 114 19 17 20 32 20 285 0 235 -2 269 -16 274 -9 3 -158 6
-333 6 -233 0 -320 -3 -329 -12z"/>
<path d="M4081 4960 c-14 -12 -38 -20 -62 -20 -28 0 -42 -6 -51 -20 -7 -11
-24 -20 -38 -20 -17 0 -45 -20 -91 -66 -38 -37 -72 -63 -78 -60 -6 4 -11 26
-11 50 0 34 -7 50 -33 79 l-33 37 -260 0 c-189 0 -263 -3 -272 -12 -9 -9 -12
-156 -12 -598 0 -574 0 -587 -20 -605 -20 -18 -20 -31 -20 -774 0 -416 4 -762
8 -769 7 -9 82 -12 343 -10 l334 3 5 340 c3 187 7 341 8 343 1 1 93 2 205 2
l203 0 22 25 c18 20 31 25 70 25 36 0 50 5 60 20 7 11 23 20 38 20 19 0 55 29
145 119 68 68 119 126 119 137 0 10 20 41 45 69 25 27 45 59 45 71 0 11 9 29
20 39 15 13 20 31 20 66 0 38 4 51 20 59 17 9 20 21 20 82 0 61 3 75 23 96 21
23 22 29 25 283 l2 258 -25 17 c-23 15 -25 22 -25 90 0 63 -3 75 -20 84 -16 9
-20 21 -20 65 0 44 -4 56 -20 65 -13 7 -20 21 -20 38 0 20 -12 38 -45 67 -31
28 -45 48 -45 65 0 36 -96 130 -132 130 -16 0 -32 9 -42 25 -11 17 -26 25 -46
25 -19 0 -33 7 -40 20 -9 16 -21 20 -65 20 -44 0 -56 4 -65 20 -9 17 -21 20
-88 20 -62 -1 -82 -5 -101 -20z m147 -689 c2 -41 8 -58 23 -69 18 -12 19 -26
19 -193 0 -167 -1 -180 -20 -196 -16 -14 -20 -30 -20 -83 l0 -65 -79 -77 c-74
-74 -80 -78 -123 -78 -37 0 -49 4 -62 24 -10 16 -27 26 -48 28 -29 3 -33 7
-36 35 -2 24 2 34 17 43 19 10 21 20 21 104 0 86 2 94 25 114 20 18 25 31 25
72 0 39 4 51 20 60 13 7 20 21 20 40 0 19 7 34 20 42 12 8 20 24 20 39 0 14 9
37 19 51 11 13 23 37 27 52 3 14 15 31 25 37 12 6 19 21 19 38 0 37 7 43 50
39 35 -3 35 -3 38 -57z"/>
<path d="M7761 4960 c-21 -18 -38 -20 -192 -20 -156 0 -169 -1 -182 -20 -12
-17 -27 -20 -133 -22 l-119 -3 -3 -144 c-2 -135 -1 -145 18 -158 19 -13 20
-24 20 -227 0 -198 1 -215 20 -239 19 -24 20 -40 20 -265 0 -226 -1 -240 -20
-257 -19 -17 -20 -31 -20 -201 0 -173 -1 -184 -20 -194 -16 -8 -20 -21 -20
-59 0 -38 -5 -52 -25 -71 -19 -18 -25 -33 -25 -68 0 -58 -43 -105 -92 -100
-29 3 -33 7 -36 34 -2 18 -12 40 -23 50 -10 9 -19 30 -19 45 0 18 -7 32 -20
39 -13 7 -20 21 -20 40 0 20 -8 35 -25 46 -23 15 -25 23 -25 86 0 55 -4 75
-20 95 -17 22 -20 41 -20 132 0 94 -2 108 -19 118 -18 11 -20 27 -23 187 -3
157 -5 176 -23 196 -19 21 -20 40 -25 444 l-5 421 -275 0 -275 0 -3 -656 c-2
-646 -2 -656 18 -674 18 -16 20 -31 20 -150 0 -127 1 -132 25 -155 22 -20 25
-32 25 -90 0 -54 4 -70 20 -85 16 -15 20 -31 20 -85 0 -54 4 -70 20 -85 11
-10 20 -29 20 -42 0 -13 11 -33 25 -45 15 -13 25 -32 25 -49 0 -18 7 -32 20
-39 12 -7 20 -21 20 -38 0 -38 272 -312 310 -312 14 0 31 -9 38 -20 9 -16 23
-20 61 -20 35 0 53 -5 66 -20 17 -18 31 -20 175 -20 144 0 158 2 175 20 12 13
31 20 54 20 37 0 105 40 122 72 6 11 21 18 39 18 22 0 39 12 74 52 25 28 48
63 51 77 3 14 26 44 50 66 33 29 45 47 45 67 0 17 7 31 20 38 13 7 20 21 20
39 0 15 9 36 20 46 15 13 20 31 20 65 0 37 5 51 25 68 20 18 25 31 25 70 0 36
5 50 20 60 18 11 20 23 20 101 0 75 3 91 20 106 19 17 20 31 20 198 0 179 0
180 25 203 l25 23 0 384 c0 383 0 384 -22 413 -21 27 -23 40 -26 199 -3 150
-6 172 -22 190 -12 13 -20 38 -22 70 -3 57 -19 66 -57 35z"/>
<path d="M12102 4960 c-9 -15 -23 -20 -59 -20 l-48 0 -152 -152 c-101 -101
-156 -149 -163 -142 -5 5 -11 72 -12 149 l-3 140 -275 0 -275 0 -5 -310 c-5
-300 -6 -311 -26 -331 -22 -22 -22 -26 -23 -474 -2 -433 -3 -454 -21 -478 -19
-24 -20 -44 -20 -583 0 -306 3 -564 6 -573 5 -14 45 -16 339 -16 l333 0 31 31
c26 26 31 38 31 79 0 40 -4 50 -26 65 l-25 16 3 304 c3 300 3 304 26 325 17
16 22 32 22 70 0 39 4 53 20 62 16 10 20 24 20 65 0 42 4 54 20 63 16 9 20 21
20 60 0 41 5 54 25 72 20 17 25 31 25 70 0 37 5 51 20 60 16 10 20 24 20 65 0
42 4 54 20 63 16 8 20 21 20 59 0 38 5 52 25 71 20 19 25 33 25 72 0 37 4 51
20 60 12 8 20 24 20 39 0 14 9 34 20 44 11 10 20 30 20 45 0 18 8 33 24 44 16
10 26 27 28 48 2 21 8 33 18 33 12 0 16 -17 18 -77 2 -65 6 -79 22 -88 19 -10
20 -24 20 -498 0 -476 0 -487 -20 -500 -19 -12 -20 -23 -20 -217 0 -195 -1
-205 -20 -215 -19 -10 -20 -19 -18 -133 l3 -122 92 -5 c67 -4 96 -9 110 -23
17 -15 42 -17 196 -17 176 0 177 0 199 -25 29 -34 58 -31 96 8 l32 33 0 156
c0 155 0 156 25 172 l25 16 0 758 0 759 -25 23 c-23 22 -25 30 -25 115 0 79
-3 94 -20 110 -16 15 -20 31 -20 86 0 58 -3 70 -20 79 -13 7 -20 21 -20 39 0
17 -10 36 -25 49 -14 12 -25 32 -25 45 0 14 -16 39 -40 62 -24 23 -40 48 -40
62 0 31 -62 93 -93 93 -13 0 -32 9 -42 20 -10 11 -31 20 -46 20 -18 0 -32 7
-39 20 -10 19 -21 20 -173 20 -151 0 -163 -1 -175 -20z"/>
<path d="M5271 4926 c-8 -9 -11 -47 -10 -102 2 -80 0 -89 -20 -102 -19 -13
-21 -23 -21 -127 0 -99 -2 -114 -20 -130 -18 -16 -20 -31 -20 -148 0 -120 -2
-133 -21 -153 -21 -22 -22 -32 -20 -193 l2 -171 -25 -24 -26 -23 0 -454 c0
-452 0 -453 22 -476 16 -17 21 -34 20 -62 -2 -29 4 -46 23 -69 18 -22 25 -42
25 -72 0 -38 5 -47 64 -105 45 -43 65 -71 68 -91 2 -24 8 -30 33 -32 20 -2 43
-18 71 -48 37 -39 45 -44 86 -44 32 0 50 -6 63 -20 18 -19 29 -20 244 -18
l226 3 0 360 0 360 -94 3 -94 3 -34 36 c-32 36 -33 39 -33 123 0 74 -3 90 -20
105 -19 18 -20 31 -20 412 0 381 1 394 20 410 19 16 20 30 20 233 l0 217 25
23 c25 23 25 26 25 175 0 104 -4 155 -12 163 -8 8 -55 12 -148 12 -124 0 -136
2 -148 20 -11 18 -23 20 -126 20 -86 0 -116 -3 -125 -14z"/>
<path d="M10165 4018 c-2 -7 -5 -69 -7 -138 -3 -114 -6 -128 -26 -148 l-22
-22 0 -523 c0 -511 0 -524 -20 -542 -19 -17 -20 -31 -20 -215 0 -208 3 -220
48 -220 13 0 35 -9 49 -20 24 -19 41 -20 324 -20 295 0 298 0 310 21 7 15 10
68 7 160 -3 126 -5 140 -26 162 l-22 23 0 496 c0 460 -1 498 -17 514 -16 15
-19 46 -23 248 l-5 231 -273 3 c-213 2 -273 0 -277 -10z"/>
</g>
</svg>
